<svg xmlns="http://www.w3.org/2000/svg" viewBox="0 0 400 300" role="img" aria-label="Ảnh minh họa sảnh vào và thang máy Cozy House">
  <rect width="400" height="300" fill="#F0E9DA"/>
  <rect x="24" y="24" width="352" height="252" rx="16" fill="#FDFBF7"/>
  <rect x="48" y="60" width="140" height="188" rx="8" fill="#292524"/>
  <rect x="60" y="72" width="116" height="164" rx="4" fill="#3B3532"/>
  <path d="M84 92 l24 -14 24 14" fill="none" stroke="#EFE0C8" stroke-width="3" stroke-linecap="round" stroke-linejoin="round"/>
  <path d="M84 118 l24 14 24 -14" fill="none" stroke="#EFE0C8" stroke-width="3" stroke-linecap="round" stroke-linejoin="round"/>
  <circle cx="108" cy="105" r="3" fill="#B45309"/>
  <rect x="76" y="150" width="64" height="80" rx="3" fill="#4A433D"/>
  <rect x="150" y="150" width="16" height="80" rx="3" fill="#57504A"/>
  <rect x="216" y="88" width="120" height="160" rx="8" fill="#EFE5D3"/>
  <rect x="232" y="104" width="88" height="50" rx="6" fill="#FDFBF7"/>
  <path d="M244 130 h64 M244 118 h40" stroke="#DED4BC" stroke-width="6" stroke-linecap="round"/>
  <circle cx="276" cy="192" r="26" fill="#B45309" opacity="0.4"/>
  <path d="M266 192 l7 7 15 -15" fill="none" stroke="#FDFBF7" stroke-width="4" stroke-linecap="round" stroke-linejoin="round"/>
  <circle cx="196" cy="240" r="14" fill="#8FA876" opacity="0.5"/>
  <rect x="189" y="252" width="14" height="18" rx="3" fill="#C9BFA8"/>
  <text x="200" y="270" text-anchor="middle" font-family="Inter, sans-serif" font-size="12" fill="#78716C">Ảnh minh họa · sảnh &amp; thang máy</text>
</svg>
