<svg xmlns="http://www.w3.org/2000/svg" viewBox="0 0 800 600" role="img" aria-label="Ảnh minh họa mặt tiền Cozy House 156">
  <defs>
    <linearGradient id="sky156" x1="0" y1="0" x2="0" y2="1">
      <stop offset="0" stop-color="#F5EFE6"/>
      <stop offset="1" stop-color="#EFE0C8"/>
    </linearGradient>
  </defs>
  <rect width="800" height="600" fill="url(#sky156)"/>
  <rect x="150" y="100" width="380" height="440" rx="6" fill="#292524"/>
  <rect x="164" y="114" width="352" height="412" fill="#3B3532"/>
  <!-- 5 tang, moi tang 2 o cua so -->
  <g fill="#B45309" fill-opacity="0.75">
    <rect x="188" y="140" width="70" height="60" rx="4"/>
    <rect x="278" y="140" width="70" height="60" rx="4"/>
    <rect x="368" y="140" width="70" height="60" rx="4"/>
    <rect x="188" y="220" width="70" height="60" rx="4"/>
    <rect x="278" y="220" width="70" height="60" rx="4"/>
    <rect x="368" y="220" width="70" height="60" rx="4"/>
    <rect x="188" y="300" width="70" height="60" rx="4"/>
    <rect x="278" y="300" width="70" height="60" rx="4"/>
    <rect x="368" y="300" width="70" height="60" rx="4"/>
    <rect x="188" y="380" width="70" height="60" rx="4"/>
    <rect x="278" y="380" width="70" height="60" rx="4"/>
    <rect x="368" y="380" width="70" height="60" rx="4"/>
  </g>
  <rect x="188" y="460" width="250" height="66" rx="4" fill="#FDFBF7" fill-opacity="0.9"/>
  <rect x="260" y="140" width="6" height="386" fill="#4A433D"/>
  <rect x="350" y="140" width="6" height="386" fill="#4A433D"/>
  <rect x="600" y="230" width="120" height="310" rx="6" fill="#44403C"/>
  <rect x="614" y="246" width="92" height="278" fill="#57504A"/>
  <g fill="#EFE0C8" fill-opacity="0.7">
    <rect x="628" y="266" width="30" height="34" rx="3"/>
    <rect x="668" y="266" width="30" height="34" rx="3"/>
    <rect x="628" y="326" width="30" height="34" rx="3"/>
    <rect x="668" y="326" width="30" height="34" rx="3"/>
    <rect x="628" y="386" width="30" height="34" rx="3"/>
    <rect x="668" y="386" width="30" height="34" rx="3"/>
  </g>
  <rect x="0" y="540" width="800" height="60" fill="#E7E0D3"/>
  <text x="400" y="580" text-anchor="middle" font-family="Inter, sans-serif" font-size="16" fill="#78716C">Ảnh minh họa · Cozy House 156 · 156/1/17 Cộng Hòa</text>
</svg>
